<?xml version="1.0" encoding="utf-8"?>
<!-- Generator: Adobe Illustrator 24.0.1, SVG Export Plug-In . SVG Version: 6.00 Build 0)  -->
<svg version="1.1" id="Слой_1" xmlns="http://www.w3.org/2000/svg" xmlns:xlink="http://www.w3.org/1999/xlink" x="0px"
     y="0px"
     viewBox="0 0 68 18.2" style="enable-background:new 0 0 68 18.2;" xml:space="preserve">
<style type="text/css">
	.st0{fill:#C8C8C8;}
	.st1{fill:#8C8C8C;}
</style>
    <g id="Layer_1">
	<path id="Combined-Shape" class="st0" d="M60,0c1.2,0,2.4,0.3,3.5,0.9C63.7,1,63.8,1.1,64,1.2L63.3,2l-1.1-1.3l-1.9,1.9l-1.1-1.4
		l-3.4,3.6L58,7.5l-0.9,0.9l2.2,2.8l-0.9,0.9l3.1,4l1.8-1.9l1.6,2.1c-0.3,0.3-0.7,0.6-1,0.8c-1.1,0.7-2.5,1.2-3.9,1.2
		c-4.4,0-7.9-4.1-7.9-9.1C52.2,4.1,55.7,0,60,0z M58.6,8.5l1.9-1.9l1.7,2.2l-1.9,1.9L58.6,8.5z M59.9,12.2l1.9-2l1.7,2.2l-1.9,1.9
		L59.9,12.2z M57.3,4.8l1.9-1.9L60.8,5L58.9,7L57.3,4.8z M60.7,3.8l1.4-1.5l1.3,1.6L62,5.4L60.7,3.8z M63.2,10.5L64.6,9l1.3,1.6
		l-1.4,1.4L63.2,10.5z M64.4,13.7l1.4-1.5l1.3,1.6l-1.4,1.5L64.4,13.7z M65,6.2l0.9-1l0.8,1.1l-0.9,1L65,6.2z M63.8,3l0.9-1l0.8,1.1
		l-0.9,1L63.8,3z M66.2,9.4l0.9-1L68,9.6l-0.9,1L66.2,9.4z M62,7l1.4-1.5l1.3,1.6l-1.4,1.5L62,7z"/>
        <g>
		<g id="Group-27" transform="translate(0.000000, 2.608752)">
			<g id="Clip-26">
			</g>
            <polygon id="Fill-25" class="st1" points="4.1,3.6 4.1,3.6 2.7,9.5 1.6,9.5 0,1.2 1.1,1.2 2.3,7.4 2.3,7.4 3.6,1.2 4.5,1.2
				6,7.4 6,7.4 7.1,1.2 8.2,1.2 6.6,9.5 5.5,9.5 			"/>
		</g>
            <path id="Fill-28" class="st1" d="M9.7,8.6H12c0-1.2-0.6-1.7-1.1-1.7C10.3,6.8,9.8,7.4,9.7,8.6 M12.8,10.8v0.9
			c-0.5,0.3-1.1,0.5-1.8,0.5c-1.7,0-2.4-1.2-2.4-3.1c0-1.8,0.8-3.1,2.3-3.1c1.3,0,2,1,2,2.9v0.4H9.6c0,1.4,0.5,2,1.5,2
			C11.7,11.4,12.2,11.2,12.8,10.8"/>
            <path id="Fill-30" class="st1" d="M15.3,11.3c0.3,0.2,0.7,0.2,0.9,0.2c0.7,0,1.3-0.5,1.3-2.5c0-1.5-0.5-2-1.1-2
			c-0.4,0-0.7,0.1-1.1,0.4L15.3,11.3L15.3,11.3z M15.3,6.6c0.3-0.2,0.8-0.4,1.4-0.4c1.3,0,1.9,1,1.9,2.9c0,2.2-0.9,3.3-2.4,3.3
			c-0.5,0-1.4-0.2-2-0.6V3.5l1.1-0.3V6.6L15.3,6.6z"/>
            <polygon id="Fill-32" class="st1" points="23.1,10.4 23.2,10.4 25.3,3.8 26.6,3.8 26.6,12.1 25.5,12.1 25.5,6.1 25.4,6.1
			23.4,12.1 22.7,12.1 20.7,6.2 20.6,6.2 20.6,12.1 19.7,12.1 19.7,3.8 20.9,3.8 		"/>
            <path id="Fill-34" class="st1" d="M31.1,9.1c0-1.6-0.6-2.3-1.2-2.3c-0.7,0-1.2,0.7-1.2,2.3c0,1.6,0.5,2.3,1.2,2.3
			S31.1,10.8,31.1,9.1 M27.5,9.1c0-2.1,1-3.1,2.3-3.1c1.3,0,2.3,1,2.3,3.1c0,2-0.9,3.1-2.3,3.1S27.5,11.2,27.5,9.1"/>
            <path id="Fill-36" class="st1" d="M32.9,6.9c0.5-0.3,1.4-0.9,2.6-0.9c1.2,0,1.7,0.6,1.7,1.8v4.3h-1.1v-4c0-0.9-0.4-1.1-0.9-1.1
			c-0.4,0-0.9,0.2-1.2,0.4v4.7h-1.1L32.9,6.9L32.9,6.9z"/>
            <path id="Fill-38" class="st1" d="M39.4,8.6h2.3c0-1.2-0.6-1.7-1.1-1.7C40,6.8,39.5,7.4,39.4,8.6 M42.5,10.8v0.9
			c-0.5,0.3-1.1,0.5-1.8,0.5c-1.7,0-2.4-1.2-2.4-3.1c0-1.8,0.8-3.1,2.3-3.1c1.3,0,2,1,2,2.9v0.4h-3.3c0,1.4,0.5,2,1.5,2
			C41.4,11.4,42,11.2,42.5,10.8"/>
            <path id="Fill-40" class="st1" d="M46.9,6.1h1.1L46.1,12c-0.5,1.6-1.1,2.5-2.3,2.5v-1c0.7,0,1.1-0.6,1.4-1.5l-1.9-5.9h1.1l1.3,4.3
			h0.1L46.9,6.1z"/>
	</g>
</g>
    <g id="Слой_1_1_">
</g>
</svg>
