<?xml version="1.0" encoding="utf-8"?>
<!-- Generator: Adobe Illustrator 24.0.1, SVG Export Plug-In . SVG Version: 6.00 Build 0)  -->
<svg version="1.1" id="Слой_1" xmlns="http://www.w3.org/2000/svg" x="0px"
     y="0px"
     viewBox="0 0 87.9 23.4" style="enable-background:new 0 0 87.9 23.4;" xml:space="preserve">
<style type="text/css">
	.st0{fill:#8C8C8C;}
	.st1{fill:#C8C8C8;}
</style>
    <path class="st0" d="M10.6,0H3.7C3.2,0,2.8,0.3,2.8,0.8L0,18.3c0,0.3,0.2,0.6,0.5,0.7c0,0,0.1,0,0.1,0h3.3c0.5,0,0.9-0.3,0.9-0.8
	l0.7-4.7C5.6,13,6,12.7,6.5,12.7h2.2c4.5,0,7.1-2.2,7.8-6.5c0.3-1.9,0-3.4-0.9-4.4C14.6,0.6,12.8,0,10.6,0z M11.3,6.4
	C11,8.9,9.1,8.9,7.3,8.9h-1L7,4.3C7,4,7.3,3.8,7.5,3.8H8c1.2,0,2.4,0,3,0.7C11.4,4.9,11.5,5.5,11.3,6.4z M31,6.3h-3.3
	c-0.3,0-0.5,0.2-0.6,0.5L27,7.7l-0.2-0.3c-0.7-1-2.3-1.4-3.9-1.4c-3.6,0-6.7,2.7-7.3,6.6c-0.3,1.9,0.1,3.8,1.2,5
	c1,1.2,2.4,1.7,4.1,1.7c2.9,0,4.5-1.9,4.5-1.9l-0.1,0.9c0,0.3,0.2,0.6,0.5,0.7c0,0,0.1,0,0.1,0h2.9c0.5,0,0.9-0.3,0.9-0.8L31.6,7
	C31.6,6.7,31.4,6.4,31,6.3C31.1,6.3,31,6.3,31,6.3z M26.4,12.7c-0.3,1.9-1.8,3.1-3.7,3.1c-1,0-1.7-0.3-2.2-0.9
	c-0.5-0.6-0.7-1.4-0.5-2.3c0.3-1.9,1.8-3.2,3.7-3.2c0.9,0,1.7,0.3,2.2,0.9C26.4,11,26.6,11.8,26.4,12.7z M48.4,6.3h-3.3
	c-0.3,0-0.6,0.2-0.8,0.4l-4.5,6.7L37.9,7c-0.1-0.4-0.5-0.7-0.9-0.7h-3.2c-0.3,0-0.6,0.3-0.6,0.6c0,0.1,0,0.1,0,0.2l3.6,10.6
	l-3.4,4.8c-0.2,0.3-0.1,0.6,0.1,0.8c0.1,0.1,0.2,0.1,0.3,0.1h3.3c0.3,0,0.6-0.2,0.8-0.4L48.9,7.2C49.1,7,49,6.6,48.8,6.4
	C48.7,6.4,48.6,6.3,48.4,6.3L48.4,6.3z"/>
	<path class="st1" d="M59.3,0h-6.8c-0.5,0-0.9,0.3-0.9,0.8l-2.8,17.5c0,0.3,0.2,0.6,0.5,0.7c0,0,0.1,0,0.1,0h3.5
	c0.3,0,0.6-0.2,0.7-0.6l0.8-5c0.1-0.5,0.5-0.8,0.9-0.8h2.2c4.5,0,7.1-2.2,7.8-6.5c0.3-1.9,0-3.4-0.9-4.4C63.3,0.6,61.6,0,59.3,0z
	 M60.1,6.4c-0.4,2.5-2.2,2.5-4.1,2.5h-1l0.7-4.6c0-0.3,0.3-0.5,0.6-0.5h0.5c1.2,0,2.4,0,3,0.7C60.1,4.9,60.3,5.5,60.1,6.4z
	 M79.8,6.3h-3.3c-0.3,0-0.5,0.2-0.6,0.5l-0.1,0.9l-0.2-0.3c-0.7-1-2.3-1.4-3.9-1.4c-3.6,0-6.7,2.7-7.3,6.6c-0.3,1.9,0.1,3.8,1.2,5
	c1,1.2,2.4,1.7,4.1,1.7c2.9,0,4.5-1.9,4.5-1.9l-0.1,0.9c0,0.3,0.2,0.6,0.5,0.7c0,0,0.1,0,0.1,0h2.9c0.5,0,0.9-0.3,0.9-0.8L80.3,7
	C80.4,6.7,80.2,6.4,79.8,6.3C79.8,6.3,79.8,6.3,79.8,6.3z M75.2,12.7c-0.3,1.9-1.8,3.1-3.7,3.1c-0.9,0-1.7-0.3-2.2-0.9
	c-0.5-0.6-0.7-1.4-0.5-2.3c0.3-1.9,1.8-3.2,3.7-3.2c0.9,0,1.7,0.3,2.2,0.9C75.2,11,75.4,11.8,75.2,12.7z M83.6,0.5l-2.8,17.9
	c0,0.3,0.2,0.6,0.5,0.7c0,0,0.1,0,0.1,0h2.8c0.5,0,0.9-0.3,0.9-0.8l2.8-17.5c0-0.3-0.2-0.6-0.5-0.7c0,0-0.1,0-0.1,0h-3.2
	C83.9,0,83.7,0.2,83.6,0.5z"/>
</svg>
