<svg width="181" height="37" viewBox="0 0 181 37" fill="none" xmlns="http://www.w3.org/2000/svg">
    <path d="M120.87 2.90281C119.31 1.34099 116.405 0.91748 113.87 0.91748H100.798C100.592 0.91748 100.411 1.06242 100.348 1.27559L91.5239 31.5484C91.4274 31.8796 91.6543 32.2179 91.9732 32.2179H99.1799C99.3853 32.2179 99.567 32.073 99.6292 31.8598L102.055 23.5561C102.117 23.3426 102.294 23.1977 102.5 23.198C103.748 23.2009 108.117 23.2072 110.204 23.1641C115.264 23.0566 119.97 21.0338 122.264 12.6407C123.569 7.86509 122.609 4.64351 120.87 2.90281ZM114.674 12.518C113.976 14.7579 113.209 15.6067 112.256 16.2868C110.65 17.4336 109.51 17.3605 104.51 17.3718C104.19 17.3725 103.968 17.0338 104.065 16.7019L106.91 6.97882C106.972 6.76566 107.153 6.62107 107.359 6.62107C112.035 6.62107 113.452 6.44644 114.421 7.31078C115.058 7.87923 115.686 9.27101 114.674 12.518Z"
          fill="#C8C8C8"/>
    <path d="M23.036 25.1708C23.036 25.1708 9.50169 28.4047 8.94173 23.5609C8.61402 20.731 11.6511 11.4835 12.7066 9.8414C13.8874 8.00278 15.6009 7.25721 17.3451 6.99172C20.6819 6.48514 24.5886 7.25085 26.3752 7.70794C26.6142 7.7691 26.85 7.6178 26.9246 7.36327L28.5649 1.77917C28.6536 1.47691 28.4755 1.16087 28.1874 1.11456C26.4965 0.842356 21.1072 0.0812411 15.2951 0.373243C13.5802 0.458794 11.3566 0.9272 9.75445 1.66322C5.85697 3.44846 3.85608 7.4573 0.478259 21.308C0.340742 21.8718 -0.704951 26.2176 0.815511 28.7954C2.54242 31.7218 5.6841 32.3337 6.89913 32.4786C11.9169 33.0757 19.5899 32.3432 21.2231 32.1739C21.4133 32.1541 21.5717 32.012 21.6276 31.813L23.5245 25.0612L23.036 25.1708Z"
          fill="#C8C8C8"/>
    <path d="M56.0719 3.72049C53.908 0.660126 50.4503 0.475941 44.4964 0.345494C35.1053 0.137275 32.2436 1.45942 30.1901 7.64944C29.6495 9.27843 27.5472 16.0744 26.6528 19.4518C25.2006 24.9433 25.0503 29.539 30.1339 32.0132C32.2744 33.0575 40.1595 32.8118 43.0887 32.6276C46.0169 32.4435 47.7805 31.5219 49.0871 30.4185C50.8296 28.9486 51.7007 26.9831 52.5509 24.5262C53.2476 22.5168 54.3439 18.7784 56.0153 12.6821C57.0225 9.00516 57.7518 6.09858 56.0719 3.72049ZM47.963 10.8756C44.7488 22.5094 44.2977 24.7241 42.4527 26.1297C41.3629 26.9612 39.5854 26.981 39.5854 26.981C39.5854 26.981 37.8631 27.0577 37.1462 26.9612C36.8527 26.9216 35.2245 26.8975 34.4142 25.5704C33.4731 24.0259 34.6967 20.7835 34.6967 20.7835C38.4768 8.13587 38.6829 7.7965 39.6808 6.97387C40.7714 6.07595 43.2839 6.07772 44.7014 6.14241C44.8952 6.15125 47.7374 6.03494 48.3564 7.38289C48.8033 8.35823 47.963 10.8756 47.963 10.8756Z"
          fill="#C8C8C8"/>
    <path d="M138.366 0.928223C135.163 0.928223 134.224 1.56879 132.798 2.54272C131.254 3.60008 129.743 6.62085 128.828 8.05789C128.076 9.23933 117.514 27.3364 115.173 31.3499C114.973 31.6921 115.202 32.1343 115.573 32.1343H122.528C122.692 32.1343 122.845 32.0413 122.93 31.889L126.377 25.7633C126.463 25.6109 126.615 25.5179 126.779 25.5179H135.783C136.054 25.5179 136.269 25.7654 136.254 26.0599L135.971 31.6889C135.956 31.9833 136.172 32.2308 136.442 32.2308H143.559C143.812 32.2308 144.02 32.0134 144.031 31.738L145.16 1.46309C145.171 1.17144 144.957 0.928223 144.689 0.928223H138.366ZM136.535 19.7373L130.47 19.7698C130.1 19.7719 129.872 19.3297 130.066 18.9861L136.173 8.19965C136.429 7.7475 137.069 7.9642 137.045 8.49483L136.535 19.7373Z"
          fill="#C8C8C8"/>
    <path d="M173.655 26.926L172.362 26.9546C173.37 26.1472 175.314 19.452 176.747 14.062C177.919 9.65687 179.067 5.94392 177.028 3.43115C174.855 0.752574 171.097 0.476122 165.48 0.345676C161.061 0.24351 157.302 0.465165 154.947 2.13021C153.386 3.23247 152.394 4.42169 151.165 7.99641C150.607 9.61869 148.833 15.5089 147.989 18.9016C147.296 21.6806 144.779 29.4137 151.193 31.9961C152.468 32.5097 154.433 32.6331 156.897 32.6844C157.046 32.6876 157.187 32.6204 157.278 32.4921C158.722 30.4583 161.503 28.4507 164.884 27.5712C166.178 27.2332 167.984 26.9964 169.443 26.9614C170.565 26.9352 171.298 26.9879 171.298 26.9879C169.585 27.1522 167.543 27.5408 165.551 28.3019C158.67 30.9331 158.513 37.5332 158.623 36.6031C158.857 36.1198 160.311 33.9567 163.9 33.1457C166.401 32.5812 169.097 32.6943 179.231 32.6897C179.44 32.6897 179.617 32.5409 179.677 32.3235L180.98 27.5878C181.071 27.258 180.844 26.9264 180.528 26.9264L173.655 26.926ZM169.325 9.95665C169.101 10.9977 167.195 17.9637 166.374 20.6476C165.825 22.4399 165.325 24.3945 164.125 25.5791C163.07 26.6213 161.862 26.8033 160.47 26.961C159.381 27.0861 157.675 26.9348 157.675 26.9348C157.675 26.9348 156.126 26.8055 155.452 25.4716C154.956 24.491 155.157 23.1901 155.409 22.1787C155.586 21.4766 158.43 11.2661 159.003 9.79721C159.515 8.48533 159.739 7.75037 160.664 6.9737C161.623 6.16875 162.992 6.17971 163.507 6.12704C164.413 6.03477 166.31 6.10512 166.31 6.10512C166.31 6.10512 168.482 6.12703 169.242 6.98466C169.945 7.78148 169.529 9.01206 169.325 9.95665Z"
          fill="#C8C8C8"/>
    <path d="M63.093 0.80315L54.1745 31.4673C54.078 31.7985 54.305 32.1365 54.6242 32.1365H61.2416C61.4467 32.1365 61.628 31.9922 61.6906 31.7798L68.1408 9.87148C68.2914 9.35959 68.9712 9.41191 69.0546 9.94183L71.6784 26.627C71.7173 26.8737 71.9135 27.054 72.1433 27.054H73.0613C73.2112 27.054 73.3519 26.9766 73.441 26.8451L84.9033 9.90824C85.2197 9.44055 85.8939 9.81492 85.7323 10.3689L79.578 31.4673C79.4815 31.7985 79.7085 32.1368 80.0273 32.1368H86.882C87.0873 32.1368 87.2691 31.9919 87.3313 31.7787L96.1472 1.59679C96.2441 1.26554 96.0217 0.927233 95.7025 0.927233C93.8292 0.926172 88.4752 0.922993 88.2391 0.927589C87.9365 0.935366 84.5276 0.759665 82.1841 4.00421C81.3403 5.17187 78.2294 9.87466 76.8644 11.9434C76.6212 12.3121 76.0931 12.1774 76.0199 11.7303C75.741 10.0256 75.227 6.90904 74.9088 5.11637C74.4026 2.26882 72.589 1.11919 69.9812 0.895769C68.7121 0.786533 63.093 0.80315 63.093 0.80315Z"
          fill="#C8C8C8"/>
    <path d="M96.1673 31.5484L104.992 1.27559C105.054 1.06207 105.236 0.91748 105.441 0.91748H100.797C100.592 0.91748 100.41 1.06242 100.348 1.27559L91.5235 31.5484C91.427 31.8796 91.654 32.2176 91.9728 32.2176H96.6166C96.2977 32.2176 96.0708 31.8796 96.1673 31.5484Z"
          fill="#C8C8C8"/>
    <path d="M111.974 6.62599C113.022 6.65038 113.858 6.80841 114.421 7.31075C115.058 7.87885 115.686 9.27098 114.674 12.5176C113.976 14.7575 113.209 15.6063 112.256 16.2865C111.199 17.0412 110.296 17.2452 108.934 17.3131C109.149 17.4375 113.348 17.3251 113.597 17.3124C116.823 17.1451 118.371 15.5547 119.317 12.518C120.33 9.27133 119.702 7.8792 119.064 7.3111C118.446 6.75927 117.502 6.6214 116.304 6.6214C116.189 6.62104 112.088 6.61821 111.974 6.62599Z"
          fill="#C8C8C8"/>
    <path d="M5.46024 28.7954C3.93978 26.2176 4.98547 21.8718 5.12299 21.308C8.39511 7.89109 10.3568 3.51459 14.3992 1.66323C16.0013 0.92722 18.2249 0.458814 19.9398 0.373263C20.0784 0.366193 20.2166 0.360539 20.3548 0.354529C18.7672 0.293018 17.0512 0.284885 15.296 0.373263C13.5812 0.458814 11.3576 0.92722 9.75543 1.66323C5.78724 3.48065 3.80898 7.65494 0.479235 21.308C0.341718 21.8718 -0.703975 26.2176 0.816487 28.7954C2.5434 31.7218 5.68508 32.3337 6.9001 32.4787C9.01623 32.7304 11.6032 32.7456 14.0117 32.6664C11.0122 32.5419 7.45583 32.1775 5.46024 28.7954Z"
          fill="#C8C8C8"/>
    <path d="M34.7771 32.0132C29.6922 29.5383 29.8446 24.9401 31.2961 19.4518C32.1905 16.0747 34.2928 9.27843 34.8334 7.64944C36.4878 2.66243 38.5799 0.664013 45.3125 0.36494C45.0439 0.358223 44.7756 0.351857 44.4963 0.345494C35.1052 0.137275 32.2435 1.45942 30.1899 7.64944C29.6494 9.27843 27.5471 16.0744 26.6527 19.4518C25.2005 24.9433 25.0502 29.539 30.1337 32.0132C31.7274 32.7906 36.5048 32.8528 40.0512 32.7581C37.7873 32.6835 35.7224 32.4742 34.7771 32.0132Z"
          fill="#C8C8C8"/>
    <path d="M47.0961 26.1298C48.9411 24.7242 49.389 22.5212 52.6063 10.8757C52.6063 10.8757 53.447 8.35835 52.9998 7.38336C52.3808 6.03541 49.5385 6.15172 49.3448 6.14288C48.7686 6.11637 48.1259 6.12733 47.4613 6.15844C47.1979 6.17046 46.7673 6.18353 46.2894 6.24893C47.124 6.38292 48.0365 6.68694 48.3564 7.38336C48.8032 8.35835 47.9629 10.8757 47.9629 10.8757C47.9629 10.8757 45.6552 19.2282 45.1444 20.9219C44.589 22.7626 43.9615 24.9802 42.4527 26.1298C41.9818 26.489 41.383 26.6961 40.8541 26.8163C41.2971 26.9295 41.6651 26.9443 41.7899 26.9613C42.143 27.0087 45.5689 27.2946 47.0961 26.1298Z"
          fill="#C8C8C8"/>
    <path d="M119.816 31.3498C122.158 27.3364 132.719 9.23933 133.471 8.05789C134.386 6.62085 135.897 3.60008 137.442 2.54272C138.867 1.56879 139.806 0.928223 143.009 0.928223H138.366C135.162 0.928223 134.223 1.56879 132.798 2.54272C131.254 3.60008 129.743 6.62085 128.828 8.05789C128.075 9.23933 117.514 27.3364 115.172 31.3498C114.973 31.692 115.201 32.1343 115.573 32.1343H120.217C119.845 32.1339 119.617 31.6917 119.816 31.3498Z"
          fill="#C8C8C8"/>
    <path d="M155.836 31.9956C153.896 31.2147 152.463 29.837 151.873 27.6322C151.118 24.8133 151.704 22.6239 152.632 18.9011C153.476 15.5084 155.25 9.6182 155.808 7.99592C157.037 4.4212 158.029 3.23233 159.59 2.12972C161.252 0.954999 163.614 0.500377 166.412 0.369224C166.106 0.360386 165.797 0.352611 165.48 0.345187C161.06 0.243022 157.302 0.464676 154.946 2.12972C153.386 3.23198 152.394 4.4212 151.164 7.99592C150.607 9.6182 148.833 15.5084 147.988 18.9011C147.289 21.7052 144.784 29.4157 151.193 31.9956C152.468 32.5093 154.433 32.6326 156.896 32.6839C157.045 32.6871 157.187 32.6199 157.278 32.4916C157.298 32.4633 157.328 32.4237 157.353 32.3901C156.776 32.2936 156.264 32.1681 155.836 31.9956Z"
          fill="#C8C8C8"/>
    <path d="M173.885 6.98479C173.125 6.12717 170.954 6.10525 170.954 6.10525C170.954 6.10525 169.057 6.0349 168.15 6.12717C167.969 6.14591 167.678 6.15792 167.339 6.19928C168.009 6.30322 168.831 6.52133 169.241 6.98514C169.945 7.78161 169.529 9.01219 169.325 9.95643C169.1 10.9975 167.195 17.9635 166.373 20.6474C165.825 22.4397 165.324 24.3943 164.125 25.5789C163.388 26.3068 162.574 26.6119 161.678 26.7854C162.044 26.9106 162.319 26.9346 162.319 26.9346C162.319 26.9346 164.024 27.0859 165.113 26.9608C166.505 26.8028 167.713 26.6207 168.768 25.5789C169.968 24.3943 170.468 22.4397 171.017 20.6474C171.838 17.9635 173.744 10.9972 173.968 9.95643C174.173 9.01184 174.589 7.78126 173.885 6.98479Z"
          fill="#C8C8C8"/>
    <path d="M58.8182 31.4673L67.7306 0.824405C65.6721 0.795417 63.0932 0.803195 63.0932 0.803195L54.1748 31.4673C54.0786 31.7986 54.3052 32.1365 54.6244 32.1365H59.2682C58.9486 32.1365 58.7217 31.7986 58.8182 31.4673Z"
          fill="#C8C8C8"/>
    <path d="M171.297 26.9873C169.585 27.1517 167.542 27.5402 165.55 28.3013C162.014 29.6535 159.073 32.7906 158.622 36.6025C158.856 36.1193 160.311 33.9561 163.899 33.1452C164.12 33.095 164.365 33.0508 164.619 33.0091C164.593 28.7082 171.297 26.9873 171.297 26.9873Z"
          fill="#C8C8C8"/>
</svg>
