<svg width="160" height="37" viewBox="0 0 160 37" fill="none" xmlns="http://www.w3.org/2000/svg">
    <path d="M119.035 8.854C110.703 8.854 105.13 14.8362 105.13 22.7104C105.13 30.5309 110.703 36.5643 119.035 36.5643C127.37 36.5643 132.943 30.5305 132.943 22.7104C132.943 14.8362 127.37 8.854 119.035 8.854ZM118.986 30.6854C115.203 30.6854 113.207 27.5164 113.207 22.7108C113.207 17.8535 115.202 14.7337 118.986 14.7337C122.768 14.7337 124.866 17.8535 124.866 22.7108C124.866 27.5164 122.768 30.6854 118.986 30.6854Z"
          fill="#C8C8C8"/>
    <path d="M72.3052 35.7458H80.1292C80.1851 35.7458 80.2303 35.7005 80.2303 35.6447V9.67045C80.2303 9.61459 80.1851 9.56934 80.1292 9.56934H72.3052C72.2493 9.56934 72.2041 9.61459 72.2041 9.67045V35.6447C72.2041 35.7005 72.2493 35.7458 72.3052 35.7458Z"
          fill="#C8C8C8"/>
    <path d="M53.6944 35.7456H61.4668C61.5226 35.7456 61.5679 35.7003 61.5679 35.6445V23.7321C61.5679 18.2621 64.8397 15.8579 69.8514 16.5221H70.0035V9.6929C70.0035 9.64977 69.9766 9.61053 69.9359 9.59639C69.5432 9.461 69.0939 9.41504 68.3688 9.41504C65.249 9.41504 63.1534 10.8485 61.3646 13.9146H61.2101V9.67063C61.2101 9.61477 61.1649 9.56952 61.109 9.56952H53.6944C53.6385 9.56952 53.5933 9.61477 53.5933 9.67063V35.6448C53.5933 35.7003 53.6385 35.7456 53.6944 35.7456Z"
          fill="#C8C8C8"/>
    <path d="M9.13269 35.7458H17.3728C17.4159 35.7458 17.4541 35.7185 17.4682 35.6779L26.4999 9.70367C26.5228 9.63792 26.474 9.56934 26.4044 9.56934H18.5931C18.5486 9.56934 18.5093 9.59833 18.4963 9.6411L13.406 26.3914H13.3031L8.21284 9.6411C8.19976 9.59868 8.16052 9.56934 8.11598 9.56934H0.101074C0.0314318 9.56934 -0.0173533 9.63792 0.00562519 9.70367L9.03724 35.6779C9.05138 35.7185 9.08956 35.7458 9.13269 35.7458Z"
          fill="#C8C8C8"/>
    <path d="M72.3052 0.26416H80.1292C80.1851 0.26416 80.2303 0.309409 80.2303 0.365264V7.27013C80.2303 7.32599 80.1851 7.37124 80.1292 7.37124H72.3052C72.2493 7.37124 72.2041 7.32599 72.2041 7.27013V0.365264C72.2041 0.309409 72.2493 0.26416 72.3052 0.26416Z"
          fill="#C8C8C8"/>
    <path d="M47.1504 11.9738C44.9523 9.92727 42.0379 8.80273 38.3571 8.80273C30.4829 8.80273 25.0129 14.7849 25.0129 22.6079C25.0129 30.4821 30.228 36.5134 38.8672 36.5134C42.1411 36.5134 44.7487 35.6459 46.8956 34.1632C49.1556 32.6064 50.7726 30.3591 51.2664 28.0994C51.2802 28.0358 51.2304 27.9753 51.165 27.9753H43.6874C43.6485 27.9753 43.6139 27.9983 43.5976 28.0336C42.8209 29.7379 41.2446 30.737 38.9185 30.737C35.4307 30.737 33.2926 28.4861 32.85 25.0252C32.8423 24.9644 32.8907 24.9089 32.9518 24.9089H51.6001C51.656 24.9089 51.702 24.8626 51.7023 24.8067C51.7345 19.23 50.2511 14.7676 47.1504 11.9738ZM42.9779 19.6935H33.5355C33.1972 19.6935 32.9494 19.3714 33.0342 19.0437C33.748 16.293 35.4222 14.5297 38.5088 14.5297C41.1333 14.5297 43.0005 16.3528 43.488 19.0883C43.5446 19.4036 43.2978 19.6935 42.9779 19.6935Z"
          fill="#C8C8C8"/>
    <path d="M104.722 29.4576H92.1434V29.3055L104.234 15.7327C104.243 15.7093 104.251 15.6885 104.26 15.6655V9.67093C104.26 9.61507 104.215 9.56982 104.159 9.56982C101.529 9.56982 85.1926 9.56982 82.5299 9.56982C82.4741 9.56982 82.4288 9.61507 82.4288 9.67093V15.7574C82.4288 15.8133 82.4741 15.8585 82.5299 15.8585H94.6997V16.013L82.4543 29.6859C82.4454 29.7093 82.4373 29.7301 82.4285 29.7534V35.6451C82.4285 35.701 82.4737 35.7462 82.5296 35.7462H104.722C104.778 35.7462 104.823 35.701 104.823 35.6451V29.5587C104.823 29.5028 104.778 29.4576 104.722 29.4576Z"
          fill="#C8C8C8"/>
    <path d="M150.53 8.80273C146.952 8.80273 144.447 10.337 142.555 13.1478H142.401V9.67062C142.401 9.61476 142.355 9.56951 142.3 9.56951H134.782C134.726 9.56951 134.681 9.61476 134.681 9.67062V35.6448C134.681 35.7007 134.726 35.7459 134.782 35.7459H142.557C142.612 35.7459 142.658 35.7007 142.658 35.6448V21.1761C142.658 18.3918 144.021 16.2888 146.147 15.68C148.921 14.886 151.656 17.1036 151.656 19.9887V35.6448C151.656 35.7007 151.702 35.7459 151.758 35.7459H159.53C159.586 35.7459 159.631 35.7007 159.631 35.6448C159.631 35.2832 159.631 17.3355 159.631 17.7163C159.631 16.1834 159.297 14.6548 158.559 13.3111C157.028 10.5244 154.178 8.80273 150.53 8.80273Z"
          fill="#C8C8C8"/>
    <path d="M76.0906 35.6447V9.67045C76.0906 9.61459 76.1359 9.56934 76.1917 9.56934H72.3048C72.249 9.56934 72.2037 9.61459 72.2037 9.67045V35.6447C72.2037 35.7005 72.249 35.7458 72.3048 35.7458H76.1917C76.1362 35.7458 76.0906 35.7005 76.0906 35.6447Z"
          fill="#C8C8C8"/>
    <path d="M57.4802 35.6447V9.67045C57.4802 9.61459 57.5254 9.56934 57.5813 9.56934H53.6944C53.6385 9.56934 53.5933 9.61459 53.5933 9.67045V35.6447C53.5933 35.7005 53.6385 35.7458 53.6944 35.7458H57.5813C57.5254 35.7458 57.4802 35.7005 57.4802 35.6447Z"
          fill="#C8C8C8"/>
    <path d="M76.0906 7.27013V0.365264C76.0906 0.309409 76.1359 0.26416 76.1917 0.26416H72.3048C72.249 0.26416 72.2037 0.309409 72.2037 0.365264V7.27013C72.2037 7.32599 72.249 7.37124 72.3048 7.37124H76.1917C76.1362 7.37124 76.0906 7.32599 76.0906 7.27013Z"
          fill="#C8C8C8"/>
    <path d="M82.5296 15.858H86.4165C86.3606 15.858 86.3154 15.8128 86.3154 15.7569V9.67045C86.3154 9.61459 86.3606 9.56934 86.4165 9.56934H82.5296C82.4737 9.56934 82.4285 9.61459 82.4285 9.67045V15.7569C82.4285 15.8128 82.4737 15.858 82.5296 15.858Z"
          fill="#C8C8C8"/>
    <path d="M138.568 35.6447V9.67045C138.568 9.61459 138.613 9.56934 138.669 9.56934H134.782C134.726 9.56934 134.681 9.61459 134.681 9.67045V35.6447C134.681 35.7005 134.726 35.7458 134.782 35.7458H138.669C138.613 35.7458 138.568 35.7005 138.568 35.6447Z"
          fill="#C8C8C8"/>
</svg>
