<svg width="181" height="37" viewBox="0 0 181 37" fill="none" xmlns="http://www.w3.org/2000/svg">
    <path d="M73.5535 33.1961H71.6378C70.9195 33.702 70.957 35.2444 71.6562 35.81L87.4941 35.8065C103.277 35.8065 107.341 26.3422 107.341 18.2792C107.341 5.60106 98.5414 0.71582 87.1805 0.71582H81.4613C80.4669 1.3525 80.6769 3.35482 81.4613 3.68394H86.5527C93.9206 3.68394 98.552 8.60205 98.552 18.2958C98.552 28.7249 93.9793 33.2566 85.8721 33.2566L82.6035 33.2541C82.0945 33.2541 81.7021 32.6401 81.6985 32.3424C81.6985 30.403 81.6854 18.1717 81.6854 17.1462C81.6854 12.1188 78.2454 9.35681 72.674 9.35681C68.9271 9.35681 66.2347 11.0406 64.7206 13.9136C64.7206 12.9761 64.7206 11.2446 64.7206 10.7652C64.7206 10.2834 64.419 10.0356 64.0093 10.0356C63.5968 10.0356 54.5782 10.0356 54.5782 10.0356C53.6951 10.808 53.827 12.4914 54.5765 12.9962C54.5765 12.9962 56.0209 12.998 56.6869 12.998C57.2476 12.998 57.8398 13.6039 57.8398 14.2823C57.8398 14.8331 57.8345 32.3604 57.8345 32.3604C57.8345 32.7458 57.3289 33.2032 56.9613 33.2032L55.1743 33.2064C55.0279 33.2067 54.8974 33.2987 54.848 33.4365L54.165 35.3462C54.0868 35.5643 54.2459 35.7938 54.4771 35.7938C60.5212 35.8008 67.4755 35.81 67.4755 35.81C68.0783 35.2419 68.1182 33.7116 67.4826 33.1961H65.8936C65.4248 33.1961 65.0709 32.7977 65.0709 32.4007V18.3195C67.7566 11.0233 74.373 11.1014 74.373 16.3642C74.373 17.5329 74.3765 30.1237 74.373 32.2042C74.3726 32.7822 73.9417 33.1961 73.5535 33.1961Z"
          fill="#C8C8C8"/>
    <path d="M27.3784 27.8713C27.3784 33.7202 31.4081 36.1609 35.354 36.1609C38.9489 36.1609 41.6395 34.7977 43.1483 32.7017C43.4619 34.5202 44.5401 35.7861 45.9715 35.7861C46.6428 35.7861 48.7084 35.7893 51.3064 35.7918C51.498 35.7918 51.6702 35.6716 51.7345 35.4913L52.4274 33.5505C52.4864 33.3854 52.3666 33.2094 52.1913 33.2044C50.5488 33.1595 49.8181 32.7378 49.7768 30.89V17.0767C49.7768 11.2423 45.3005 9.04834 39.4435 9.04834C35.9599 9.04834 33.216 9.4365 30.3956 10.4147C30.0714 10.5313 29.9919 10.8343 29.9919 11.2522C29.9919 15.1408 29.8321 15.5841 30.4656 15.5841C32.0451 15.582 32.3117 15.6969 32.7741 15.1012C36.434 10.3687 42.6746 10.6522 42.6746 16.3435V20.2C31.8259 19.5746 27.3784 22.7669 27.3784 27.8713ZM42.6743 29.385C39.8076 33.133 33.9573 33.2182 33.9573 28.03C33.9573 24.8247 35.4604 23.0621 42.6743 23.0621V29.385Z"
          fill="#C8C8C8"/>
    <path d="M113.16 33.2088H110.213C110.213 33.2088 109.662 33.5725 109.662 34.4652C109.662 35.3019 110.213 35.7965 110.213 35.7965H124.785C124.785 35.7965 125.262 35.2641 125.262 34.4319C125.262 33.6044 124.785 33.1992 124.785 33.1992L121.8 33.2088C121.344 33.2088 121.1 32.9362 121.1 32.5131C121.1 32.5131 121.085 11.6263 121.085 11.0207C121.085 10.4151 120.869 10.0171 120.147 10.0171C119.428 10.0171 110.971 10.0224 110.971 10.0224C110.181 10.7676 110.164 12.1693 110.971 12.9431C113.707 12.9576 113.857 12.8417 113.857 13.3479C113.857 13.607 113.842 32.4678 113.842 32.4678C113.843 32.8807 113.463 33.2088 113.16 33.2088Z"
          fill="#C8C8C8"/>
    <path d="M6.44388 30.3179C5.23239 29.059 4.06932 27.8486 2.97589 25.5596C2.85429 25.2573 2.65278 24.9939 2.39224 24.9939C0.540525 24.9907 0.0866113 24.8246 0.0866113 25.55C0.0866113 32.9024 -0.0399473 33.0286 0.514719 33.3514C4.10113 35.3795 8.77461 36.1785 12.6559 36.1583C19.53 36.1134 24.8645 31.5517 24.8645 24.2166C24.8645 16.3438 17.6387 15.3536 11.8859 13.3721C6.85007 11.6374 5.81675 10.1852 5.81675 8.14927C5.81675 4.26342 11.9467 2.084 16.8761 5.16878C17.8066 5.7489 18.7671 6.69207 19.8517 8.56182C20.0822 8.9924 20.4887 8.89801 21.9586 8.90332C22.3892 8.87609 22.2793 8.97756 22.2856 2.50751C22.2856 2.19536 22.0841 1.94366 21.7536 1.83407C18.777 0.852707 15.8651 0.398438 11.9679 0.398438C4.79155 0.398084 0 4.47553 0 10.7108C0 23.2483 19.122 19.5929 19.122 27.8486C19.122 33.2605 10.2021 34.2133 6.44388 30.3179Z"
          fill="#C8C8C8"/>
    <path d="M137.623 33.5406C134.829 33.5406 132.205 31.4803 130.648 27.8126C130.403 27.4379 130.257 27.3064 130.002 27.3064C129.225 27.2862 128.444 27.3064 128.232 27.3064C128.024 27.3064 127.773 27.4202 127.773 27.7864C127.769 29.1142 127.78 32.8339 127.78 33.1648C127.78 33.5844 128.346 34.0278 128.346 34.0278C128.346 34.0278 129.958 35.0141 131.746 35.6271C139.147 38.1794 147.3 35.7759 147.3 27.7571C147.3 17.2244 133.038 21.064 133.038 15.4604C133.038 11.1723 140.691 11.0574 143.593 15.7125C143.749 15.9751 143.976 16.0812 144.308 16.0812C145.528 16.0812 145.953 16.1713 145.953 15.7379C145.953 10.8343 146.098 10.6427 145.464 10.455C143.465 9.86566 140.429 9.46973 137.102 9.46973C125.982 9.46973 124.344 22.7471 134.88 25.6137C140.414 27.1098 142.02 27.8957 142.02 30.2582C142.02 32.3054 140.415 33.5406 137.623 33.5406Z"
          fill="#C8C8C8"/>
    <path d="M115.773 0.640625C115.657 0.640625 115.556 0.717335 115.524 0.828339L114.982 2.73485C114.977 2.75429 114.284 5.2031 114.029 6.10421C113.983 6.26895 114.107 6.43192 114.278 6.43192H121.633C121.747 6.43192 121.847 6.35804 121.88 6.24951L122.686 3.63243C122.692 3.6045 123.258 1.74501 123.491 0.971868C123.541 0.806069 123.417 0.640625 123.243 0.640625H115.773Z"
          fill="#C8C8C8"/>
    <path d="M117.753 6.10421C118.007 5.2031 118.7 2.7543 118.706 2.73486L119.247 0.828344C119.279 0.71734 119.38 0.640625 119.496 0.640625H115.773C115.657 0.640625 115.556 0.71734 115.524 0.828344L114.983 2.73486C114.977 2.7543 114.284 5.2031 114.03 6.10421C113.983 6.26895 114.107 6.43192 114.278 6.43192H118.001C117.83 6.43192 117.706 6.26895 117.753 6.10421Z"
          fill="#C8C8C8"/>
    <path d="M180.711 33.5027C180.606 33.3241 180.411 33.2177 180.204 33.2199C179.067 33.2312 177.227 33.2287 176.228 31.7167C175.948 31.2999 169.099 20.8482 167.782 18.8084C167.651 18.6055 167.659 18.3429 167.801 18.1477C169.716 15.5331 170.782 14.5214 172.524 13.6075C173.732 12.9708 175.962 12.4985 177.643 12.4985C177.658 12.4985 178.048 12.1885 178.048 11.2669C178.048 10.7575 177.913 10.0024 177.328 10.0031L169.441 10.0105C169.138 10.007 168.733 10.2438 168.452 10.6489C168.298 10.8702 163.65 17.5552 161.195 21.09C160.867 21.562 160.127 21.3297 160.127 20.7549V1.59011C160.127 1.07928 159.817 0.679808 159.208 0.679808C158.66 0.679808 150.723 0.676977 149.205 0.67627C149.026 0.67627 148.851 0.750861 148.747 0.897217C148.362 1.44446 148.364 2.42229 148.749 3.03953C148.852 3.20391 149.041 3.2937 149.234 3.2937H152.194C152.555 3.2937 152.848 3.58641 152.848 3.94735V32.58C152.848 32.9865 152.648 33.1834 152.363 33.1834H149.487C148.93 33.1834 148.7 33.9495 148.7 34.4554C148.7 34.9641 148.936 35.7973 149.501 35.7973C151.281 35.7973 160.616 35.7973 162.554 35.7973C162.787 35.7973 163.002 35.6634 163.091 35.4488C163.339 34.8531 163.35 34.115 163.124 33.5621C163.032 33.3372 162.814 33.1895 162.571 33.1895H160.659C160.374 33.1895 160.119 32.9501 160.119 32.598V26.1814C160.119 26.0297 160.177 25.8848 160.282 25.7752C160.938 25.0925 161.934 24.0642 162.075 23.9171C162.483 23.501 162.936 23.6541 163.165 24.0189C169.229 33.853 170.24 33.2793 167.315 33.2478C166.341 33.2375 166.302 35.8079 167.281 35.8097H180.256C180.468 35.8101 180.672 35.6998 180.769 35.5106C181.078 34.915 181.094 34.1549 180.711 33.5027Z"
          fill="#C8C8C8"/>
    <path d="M117.728 35.3819C117.728 35.3819 117.743 10.3293 117.743 10.0705C117.743 10.0518 117.742 10.0355 117.741 10.0186C115.009 10.02 110.972 10.0228 110.972 10.0228C110.182 10.768 110.164 12.1697 110.972 12.9435C113.707 12.958 113.857 12.8421 113.857 13.3483C113.857 13.6075 113.843 32.4682 113.843 32.4682C113.843 32.8808 113.463 33.2092 113.16 33.2092H110.213C110.213 33.2092 109.662 33.573 109.662 34.4656C109.662 35.3024 110.213 35.7969 110.213 35.7969H117.592C117.674 35.6789 117.728 35.5364 117.728 35.3819Z"
          fill="#C8C8C8"/>
    <path d="M134.88 25.6137C135.396 25.7534 135.878 25.8866 136.328 26.0157C128.993 21.7569 130.502 10.6742 139.679 9.55068C138.849 9.49836 137.987 9.46973 137.102 9.46973C125.982 9.47008 124.344 22.7474 134.88 25.6137Z"
          fill="#C8C8C8"/>
</svg>
