<svg width="181" height="46" viewBox="0 0 181 46" fill="none" xmlns="http://www.w3.org/2000/svg">
    <path d="M175.376 9.21533L174.957 10.507C174.466 12.1551 173.85 13.7697 173.296 15.3968C172.101 18.8525 170.902 22.3081 169.602 26.0404C169.379 25.4617 169.249 25.1723 169.157 24.8872L163.844 9.22372H158.123C158.404 10.1254 158.622 10.7964 158.866 11.4422C161.193 17.6531 163.315 23.9562 165.928 30.0496C167.412 33.4968 166.247 36.0927 164.477 38.7306C163.248 40.5716 161.373 41.3181 159.147 41.0749C158.534 40.9994 157.922 40.9197 157.138 40.8148C156.949 42.312 156.786 43.6707 156.622 45.0085C162.799 46.2121 166.565 44.4508 169.367 39.1835C169.664 38.6173 169.979 38.0512 170.201 37.4641C173.757 28.2002 177.293 18.9279 181 9.23211L175.376 9.21533Z"
          fill="#C8C8C8"/>
    <path d="M37.9278 0.496469V0.483887C35.8729 8.77063 33.8264 17.1874 31.7044 25.7509C29.2846 17.1371 26.9739 8.71192 24.6631 0.483887H18.7165L18.3684 1.68748C17.0767 6.56475 15.7012 11.6182 14.376 16.4828C13.5415 19.5484 12.7321 22.6308 11.8849 25.818C9.8468 17.72 7.82963 9.60518 5.87956 1.67909L5.61117 0.488086H0C2.75945 11.1652 5.456 23.1383 8.1861 33.6854L14.7115 33.677C16.6867 26.6022 18.771 17.6068 20.6665 10.5194C20.9098 9.61357 21.0775 8.69096 21.2914 7.72641C23.2163 14.7257 25.0783 21.5488 26.9697 28.372L28.4584 33.6896H34.8832L39.685 13.9457C40.8256 9.57163 41.9705 4.99631 43.1406 0.496469H37.9278Z"
          fill="#C8C8C8"/>
    <path d="M157.046 32.9044C157.046 26.639 157.134 20.5204 156.987 14.406C156.932 12.3553 155.792 10.5603 153.808 9.71322C148.859 7.60379 144.007 8.52221 139.067 10.1661C139.44 11.6172 139.742 12.8291 139.965 13.6846C142.716 13.2946 145.274 12.7033 147.832 12.632C150.621 12.5524 151.954 14.1585 152.114 16.9599C152.177 18.0503 151.9 18.541 150.654 18.6039C147.463 18.7632 144.276 19.1197 141.441 20.8055C138.17 22.7556 136.945 26.2448 138.304 29.7088C139.491 32.724 142.544 34.0996 146.234 33.4663C148.843 33.0218 150.705 31.5246 152.449 29.2852C152.449 30.6775 152.449 31.7343 152.449 32.9002C154.03 32.9044 155.523 32.9044 157.046 32.9044ZM145.697 29.6081C144.678 29.5913 143.424 29.0084 142.967 27.4693C142.493 25.8506 142.774 24.1353 144.41 23.5356C146.587 22.7388 148.939 22.4327 151.233 22.0091C151.472 21.963 152.013 22.4495 152.068 22.7556C152.646 25.7289 149.329 29.5872 145.697 29.6081Z"
          fill="#C8C8C8"/>
    <path d="M72.5342 12.9678V9.11797H67.8876V32.9088H73.029C73.029 29.2393 72.8948 25.6621 73.0794 22.1184C73.18 20.1851 73.4945 18.1176 74.3165 16.4066C74.7778 15.4505 75.8891 14.3433 76.9082 13.9198C76.9082 13.9198 78.8247 13.1439 79.6677 13.0684C79.6677 12.2003 79.6677 8.55182 79.6677 8.55182C76.3169 8.53924 74.2452 10.3299 72.5342 12.9678Z"
          fill="#C8C8C8"/>
    <path d="M107.9 8.83714C106.763 8.76165 105.891 8.72392 105.014 8.64004C98.9838 8.09906 93.9178 11.584 92.2949 17.4174C91.3974 20.6214 91.3765 23.8338 92.2404 27.0504C93.6285 32.2044 97.8138 34.8045 102.913 33.2151C104.922 32.6028 106.608 30.9966 108.29 29.9314C108.382 33.4206 108.382 33.4206 112.806 32.8712C112.806 21.8712 112.806 10.9969 112.806 0.185547C111.137 0.185547 109.627 0.185547 107.891 0.185547C107.9 3.10436 107.9 5.88478 107.9 8.83714ZM107.967 17.9081C108.055 17.9207 107.841 22.5421 107.174 24.7061C106.738 26.1319 105.677 27.5662 104.494 28.5224C102.234 30.3844 99.03 29.5372 97.9815 26.8197C96.5808 23.167 96.5766 19.4178 98.359 15.8616C99.7471 13.0812 104.427 11.6721 107.283 13.0644C107.627 13.2321 107.9 13.8486 107.937 14.2722C108.025 15.4758 107.967 16.6961 107.967 17.9081Z"
          fill="#C8C8C8"/>
    <path d="M83.3666 32.9172C85.0608 32.9172 86.6209 32.9172 88.2397 32.9172C88.2397 21.9087 88.2397 11.0303 88.2397 0.181152C86.5328 0.181152 84.9686 0.181152 83.3666 0.181152C83.3666 11.1519 83.3666 21.9884 83.3666 32.9172Z"
          fill="#C8C8C8"/>
    <path d="M56.9042 8.86638C47.9381 7.09664 40.9975 13.3662 41.7901 22.4959C42.4359 29.9355 45.8874 33.4834 52.8489 33.6721C56.5058 33.5841 59.9153 32.3637 62.1966 29.0423C65.6187 24.0727 65.669 18.7467 63.2073 13.404C62.0163 10.8039 59.6846 9.41156 56.9042 8.86638ZM53.3312 29.1932C49.4268 29.1932 46.2564 25.5741 46.2564 21.1162C46.2564 16.6583 49.4268 13.0433 53.3312 13.0433C57.2397 13.0433 60.4101 16.6583 60.4101 21.1162C60.4059 25.5741 57.2355 29.1932 53.3312 29.1932Z"
          fill="#C8C8C8"/>
    <path d="M129.417 0.688346C125.371 0.147359 121.194 0.336069 117.033 0.336069C117.033 11.1265 117.033 22.0846 117.033 32.9211C118.711 32.9211 120.284 32.9211 122.217 32.9211C122.217 28.9077 122.217 25.0411 122.217 21.552C125.249 20.9691 128.096 20.7887 130.684 19.8535C135.381 18.1341 137.641 13.9111 137.209 8.66056C136.857 4.5088 134.186 1.32579 129.417 0.688346ZM130.684 14.1795C128.973 16.4147 125.412 17.3834 122.242 16.4231C122.242 12.5691 122.242 8.68572 122.242 4.55912C125.626 4.37879 128.902 3.95942 131.066 7.13824C132.412 9.12186 132.164 12.2546 130.684 14.1795Z"
          fill="#C8C8C8"/>
</svg>
