<svg width="181" height="49" viewBox="0 0 181 49" fill="none" xmlns="http://www.w3.org/2000/svg">
    <path d="M35 18.3677H29.0381V47.4631H35V18.3677Z" fill="#C8C8C8"/>
    <path d="M115.465 17.9556C112.123 17.9556 108.857 18.7347 106.203 20.1326C106.424 20.6252 107.215 22.3668 107.433 22.8786C109.969 21.4502 112.444 20.7589 115.178 20.7589C119.616 20.7589 121.862 23.0887 121.862 27.6909V31.8387L121.304 31.5293C119.437 30.479 116.851 29.8756 114.235 29.8756C109.041 29.8756 103.484 32.2626 103.484 38.9922C103.484 47.2266 109.724 48.1127 112.406 48.1127C115.828 48.1127 118.7 46.7607 121.205 43.9993L121.87 43.2698V47.4863H125.273V27.1791C125.273 20.9728 122.068 17.9556 115.465 17.9556ZM121.874 40.7033H121.866V40.7071L121.801 40.8102C119.666 43.7854 116.591 45.4239 113.127 45.4239C109.064 45.4239 106.826 43.0407 106.826 38.721C106.826 34.8406 109.518 32.5262 114.017 32.5262C117.283 32.5262 119.509 33.0265 121.686 34.2639L121.874 34.3709V40.7033Z"
          fill="#C8C8C8"/>
    <path d="M144.09 17.9556C140.871 17.9556 138.125 19.4031 136.371 22.0231L135.673 23.0581V18.5743H132.27V47.4863H135.68V30.521C135.68 24.4789 138.506 20.8773 143.242 20.8773C148.196 20.8773 150.484 23.9366 150.484 30.521V47.4863H153.894V29.7915C153.91 22.0422 150.503 17.9556 144.09 17.9556Z"
          fill="#C8C8C8"/>
    <path d="M89.6846 17.9561C86.4955 17.9561 83.7227 19.3044 81.2172 22.0695L80.5565 22.7875V7.32324C79.7582 7.77392 77.4514 9.09539 77.1611 9.26344V47.4907H80.5565V43.5148L81.2172 44.2863C83.4744 46.8987 85.9875 48.1133 89.1231 48.1133C95.5663 48.1133 99.7179 42.0024 99.7179 32.5458C99.7255 23.2764 96.0628 17.9561 89.6846 17.9561ZM88.8023 45.1991C85.5483 45.1991 82.4929 43.4614 80.6138 40.5587L80.5527 40.4709V25.4267L80.6329 25.3159C82.955 22.3751 85.6476 20.8855 88.6305 20.8855C93.5497 20.8855 96.3722 25.1593 96.3722 32.6184C96.376 40.9597 93.8285 45.1991 88.8023 45.1991Z"
          fill="#C8C8C8"/>
    <path d="M171.96 28.6693C171.96 28.6693 178.51 19.6405 179.3 18.5826H175.584C174.515 20.1218 166.17 32.2022 166.177 32.1907L164.317 35.0819V7.32715C163.519 7.77782 161.216 9.0993 160.911 9.26735V47.4946H164.317V39.2182L169.809 31.5415C169.809 31.5415 177.15 47.0783 177.345 47.4946H181C180.507 46.4711 171.96 28.6693 171.96 28.6693Z"
          fill="#C8C8C8"/>
    <path d="M58.3512 41.169C56.7586 42.1353 55.2805 42.6204 53.9514 42.6204C52.0265 42.6204 51.1557 41.6006 51.1557 39.3472V23.9059H57.2245V18.4252H51.1557V9.36963L45.3122 12.4976V18.4252H40.2745V23.9059H45.3122V40.3288C45.3122 44.8012 47.9628 47.8643 51.9195 47.9368C54.6045 47.9903 56.2239 47.1921 57.2093 46.6001L57.2704 46.5542L58.7026 40.9475L58.3512 41.169Z"
          fill="#C8C8C8"/>
    <path d="M72.8262 13.2202C67.3646 5.49758 58.3053 0.887695 49.0855 0.887695C39.8734 0.887695 30.8102 5.49758 25.3639 13.2202L25.0851 13.6174H31.956L32.0324 13.5372C36.7072 8.7096 42.8104 6.15831 49.0893 6.15831C55.3721 6.15831 61.4715 8.7096 66.1577 13.5372L66.2341 13.6174H73.1012L72.8262 13.2202Z"
          fill="#C8C8C8"/>
    <path d="M69.2513 18.3677H63.2855V47.4631H69.2513V18.3677Z" fill="#C8C8C8"/>
    <path d="M22.1252 39.0616C20.0169 41.2119 17.5802 42.3462 15.0671 42.3462C9.8194 42.3462 6.01156 38.4086 6.01156 32.9813C6.01156 27.5618 9.8194 23.6164 15.0671 23.6164C17.5802 23.6164 20.0169 24.7584 22.1252 26.9125L22.2588 27.0423L25.6313 22.9633L25.5396 22.8526C22.7362 19.5336 19.3676 17.9219 15.2275 17.9219C11.0759 17.9219 7.27575 19.3197 4.54114 21.8405C1.56973 24.5636 0 28.4211 0 32.9852C0 37.5378 1.56973 41.4029 4.54114 44.1298C7.27575 46.662 11.0721 48.0484 15.2275 48.0484C19.3638 48.0484 22.7324 46.4367 25.5396 43.1177L25.6313 43.0184L22.2588 38.9432L22.1252 39.0616Z"
          fill="#C8C8C8"/>
</svg>
