<?xml version="1.0" standalone="no"?>
<!DOCTYPE svg PUBLIC "-//W3C//DTD SVG 20010904//EN"
        "http://www.w3.org/TR/2001/REC-SVG-20010904/DTD/svg10.dtd">
<svg version="1.0" xmlns="http://www.w3.org/2000/svg"
     width="700.000000pt" height="700.000000pt" viewBox="0 0 700.000000 700.000000"
     preserveAspectRatio="xMidYMid meet">
    <metadata>
        Created by potrace 1.11, written by Peter Selinger 2001-2013
    </metadata>
    <g transform="translate(0.000000,700.000000) scale(0.100000,-0.100000)"
       fill="#000000" stroke="none">
        <path d="M2724 6226 c-424 -425 -774 -778 -779 -785 -5 -9 235 -256 775 -796
l783 -784 784 784 784 784 -785 786 c-433 432 -787 785 -789 784 -1 0 -349
-348 -773 -773z"/>
        <path d="M783 4284 l-783 -784 786 -786 785 -785 788 788 788 788 -782 782
c-430 431 -786 783 -791 782 -5 0 -361 -353 -791 -785z"/>
        <path d="M4642 4287 l-782 -782 788 -786 787 -787 782 784 783 784 -773 773
c-425 424 -780 777 -788 784 -13 10 -139 -112 -797 -770z"/>
        <path d="M2711 2356 l-784 -784 787 -786 786 -786 773 773 c424 425 778 781
786 790 12 15 -63 94 -766 797 -429 429 -784 780 -789 780 -5 0 -362 -353
-793 -784z"/>
    </g>
</svg>
