<svg width="125" height="32" viewBox="0 0 125 32" fill="none" xmlns="http://www.w3.org/2000/svg">
    <path fill-rule="evenodd" clip-rule="evenodd"
          d="M49.7814 17.5646C49.7814 18.3704 49.5421 19.0406 49.0635 19.5752C48.5849 20.1098 47.9518 20.3771 47.1644 20.3771C46.4387 20.3771 45.8288 20.1602 45.3348 19.7263C44.8407 19.2923 44.5165 18.7267 44.3621 18.0294L41.5134 18.3084C41.6679 19.765 42.2932 20.9931 43.3893 21.9926C44.4856 22.9921 45.7748 23.4919 47.257 23.4919C49.187 23.4919 50.6461 22.872 51.6343 21.6324C52.6224 20.3926 53.1165 18.7191 53.1165 16.6116V6.91895H49.7815V17.5646H49.7814ZM64.9741 11.4748C63.7852 10.7774 62.5577 10.4288 61.2916 10.4288C59.4079 10.4288 57.8948 11.0718 56.7523 12.3579C55.6097 13.6441 55.0385 15.1782 55.0385 16.9603C55.0385 18.7269 55.6097 20.2571 56.7523 21.551C57.8949 22.8449 59.4079 23.4919 61.2916 23.4919C62.635 23.4919 63.8624 23.12 64.9741 22.3761V23.3059H68.1933V10.6845H64.9741V11.4748ZM64.9741 19.5171C64.1404 20.2299 63.1058 20.5864 61.8706 20.5864C60.7743 20.5864 59.8788 20.2299 59.184 19.5171C58.4893 18.8044 58.1418 17.952 58.1418 16.9603C58.1418 15.9841 58.4854 15.1396 59.1724 14.4267C59.8595 13.7139 60.7589 13.3575 61.8705 13.3575C63.0903 13.3575 64.1247 13.7215 64.9739 14.4499V19.5171H64.9741ZM77.2024 10.4521C75.9362 10.4521 74.8168 10.793 73.8442 11.4748V10.6845H70.6249V23.3059H73.8442V14.357C74.6008 13.6906 75.5271 13.3575 76.6234 13.3575C78.4453 13.3575 79.3563 14.326 79.3563 16.263V23.3058H82.5755V16.263C82.5755 14.233 82.1432 12.757 81.2786 11.835C80.414 10.9131 79.0552 10.4521 77.2024 10.4521ZM96.448 12.3581C95.1046 11.0874 93.4836 10.4521 91.5844 10.4521C89.6852 10.4521 88.0641 11.0874 86.7208 12.3581C85.3774 13.6288 84.7058 15.1705 84.7058 16.9836C84.7058 18.7812 85.3774 20.3153 86.7208 21.586C88.064 22.8567 89.6852 23.492 91.5844 23.492C93.4836 23.492 95.1048 22.8567 96.448 21.586C97.7913 20.3153 98.463 18.7812 98.463 16.9836C98.463 15.1705 97.7913 13.6288 96.448 12.3581ZM94.2131 19.5288C93.4952 20.2339 92.619 20.5864 91.5845 20.5864C90.5655 20.5864 89.6931 20.2338 88.9674 19.5288C88.2417 18.8238 87.8789 17.9754 87.8789 16.9836C87.8789 15.9919 88.2417 15.1396 88.9674 14.4268C89.6931 13.714 90.5655 13.3576 91.5845 13.3576C92.619 13.3576 93.4952 13.7102 94.2131 14.4152C94.9311 15.1203 95.29 15.9764 95.29 16.9836C95.29 17.9754 94.9311 18.8238 94.2131 19.5288ZM109.29 16.972C108.526 16.3754 107.371 15.9144 105.827 15.5889C104.793 15.372 104.071 15.1628 103.662 14.9613C103.253 14.7598 103.048 14.4886 103.048 14.1477C103.048 13.4038 103.666 13.032 104.901 13.032C106.074 13.032 107.379 13.3032 108.815 13.8455L110.206 11.4748C108.538 10.793 106.576 10.4521 104.971 10.4521C103.519 10.4521 102.357 10.8085 101.485 11.5213C100.613 12.2341 100.176 13.1639 100.176 14.3106C100.176 15.4417 100.574 16.2941 101.369 16.8674C102.164 17.4408 103.326 17.8979 104.855 18.2388C105.858 18.4557 106.553 18.665 106.939 18.8664C107.325 19.0679 107.518 19.3468 107.518 19.7032C107.518 20.0597 107.348 20.3502 107.009 20.5748C106.669 20.7995 106.152 20.9118 105.457 20.9118C104.16 20.9118 102.724 20.5709 101.149 19.8891L99.9448 22.2832C100.871 22.7326 101.736 23.0464 102.539 23.2246C103.342 23.4027 104.291 23.4919 105.387 23.4919C106.978 23.4919 108.217 23.1315 109.105 22.411C109.992 21.6904 110.436 20.7258 110.436 19.5171C110.436 18.417 110.054 17.5685 109.29 16.972ZM121.229 10.6845L118.145 19.2615L114.907 10.6845H111.525L116.379 23.3059C115.761 24.5766 114.435 25.2119 112.382 25.2119H112.034L111.64 27.6525C111.872 27.6681 112.25 27.6757 112.775 27.6757C113.486 27.6757 114.161 27.6138 114.802 27.4898C115.443 27.3658 116.072 27.1721 116.689 26.9086C117.307 26.6452 117.863 26.2617 118.357 25.758C118.851 25.2544 119.229 24.6617 119.492 23.9799L124.54 10.6844H121.229V10.6845Z"
          fill="#1B1E22"/>
    <path fill-rule="evenodd" clip-rule="evenodd"
          d="M16 10.6667C18.9455 10.6667 21.3333 8.2788 21.3333 5.33333C21.3333 2.38787 18.9455 0 16 0C13.0545 0 10.6667 2.38787 10.6667 5.33333C10.6667 8.2788 13.0545 10.6667 16 10.6667ZM5.33333 10.6667C2.38787 10.6667 0 13.0545 0 16C0 18.9455 2.38787 21.3333 5.33333 21.3333C8.2788 21.3333 10.6667 18.9455 10.6667 16C10.6667 13.0545 8.2788 10.6667 5.33333 10.6667ZM16 21.3333C13.0545 21.3333 10.6667 23.7212 10.6667 26.6667C10.6667 29.6121 13.0545 32 16 32C18.9455 32 21.3333 29.6121 21.3333 26.6667C21.3333 23.7212 18.9455 21.3333 16 21.3333ZM26.6667 10.6667C23.7212 10.6667 21.3333 13.0545 21.3333 16C21.3333 18.9455 23.7212 21.3333 26.6667 21.3333C29.6121 21.3333 32 18.9455 32 16C32 13.0545 29.6121 10.6667 26.6667 10.6667Z"
          fill="#FD0000"/>
</svg>
