<svg width="25" height="24" viewBox="0 0 25 24" fill="none" xmlns="http://www.w3.org/2000/svg">
    <path d="M19.0991 1.2865C19.2957 0.801311 19.4294 0.659736 19.5059 0.608199C19.5782 0.559488 19.6675 0.538504 19.9978 0.524008L20.0017 0.523841L20.0017 0.523826C20.0206 0.52285 20.0395 0.521862 20.0586 0.52087C20.2558 0.510594 20.459 0.5 20.6831 0.5C21.4134 0.5 22.0987 0.725016 22.479 1.12522L19.0991 1.2865ZM19.0991 1.2865C18.9516 1.65296 18.7397 2.18307 18.51 2.75768C17.9573 4.14058 17.3016 5.78118 17.1924 6.01836L17.1924 6.01837L17.191 6.02143C17.0468 6.32919 16.9972 6.56714 17.0956 6.76373L17.0998 6.77209L17.1037 6.78061C17.2603 7.12525 17.3857 7.27402 17.6637 7.60389C17.6801 7.62334 17.697 7.64342 17.7145 7.66421C17.8377 7.81058 17.9573 7.94162 18.0842 8.08056C18.1094 8.10816 18.1349 8.13607 18.1608 8.16447C18.3133 8.33198 18.4737 8.51152 18.6397 8.72291C18.647 8.73168 18.6545 8.74076 18.6623 8.75016C18.7911 8.90534 18.9911 9.14625 19.0904 9.4469C19.2113 9.81271 19.1733 10.2103 18.9343 10.6362L18.9343 10.6362L18.932 10.6402C18.5671 11.2765 17.296 13.4188 15.4113 15.1488C13.1821 17.1953 11.3287 17.9673 10.5105 18.3081C10.4392 18.3378 10.3757 18.3643 10.3205 18.388L10.3195 18.3884C9.67352 18.6645 8.81947 18.6313 8.26523 18.0233L8.263 18.0208C7.8309 17.5404 7.31763 16.7957 6.81165 16.0616C6.73232 15.9465 6.65317 15.8317 6.57454 15.7182L6.57336 15.7165C6.41415 15.4846 6.26711 15.3988 6.15009 15.3674C6.0269 15.3344 5.86621 15.3427 5.65227 15.426L5.65233 15.4262L5.63949 15.4308C5.39016 15.52 4.52901 15.9367 3.60962 16.3946C2.70981 16.8428 1.80327 17.3055 1.4938 17.4643C1.34491 17.5414 1.22037 17.6031 1.11138 17.6571C0.969116 17.7275 0.853334 17.7849 0.744452 17.8462C0.600393 17.9274 0.548166 17.9751 0.530272 17.9954C0.52706 18.011 0.514471 18.0648 0.506615 18.1749C0.496035 18.3232 0.497004 18.5264 0.517946 18.7747C0.559753 19.2703 0.678789 19.9176 0.919838 20.6208C1.12602 21.2209 1.66326 21.8226 2.39078 22.3304C3.11041 22.8326 3.95878 23.2021 4.69795 23.3668C5.20654 23.4785 5.77626 23.5784 6.80063 23.4108C7.84789 23.2396 9.37839 22.7868 11.7867 21.7572L11.7868 21.7571C17.3626 19.3751 21.1191 13.7891 21.9448 12.5612C22.0118 12.4616 22.0596 12.3906 22.0874 12.3524C22.0948 12.342 22.1032 12.33 22.1127 12.3167C22.298 12.0562 22.8699 11.2516 23.4098 10.1541C23.9836 8.98748 24.5 7.53134 24.5 6.0787C24.5 3.24392 23.1626 1.84192 22.536 1.18507C22.5163 1.16442 22.4973 1.14451 22.4791 1.12531L19.0991 1.2865Z"
          stroke="#79BA38"/>
</svg>
